<mxfile host="app.diagrams.net" modified="2021-11-03T06:34:14.469Z" agent="5.0 (Windows NT 10.0; Win64; x64) AppleWebKit/537.36 (KHTML, like Gecko) Chrome/94.0.4606.81 Safari/537.36" etag="uFTptMxYg4RTa7jMl5po" version="15.6.6" type="github">
  <diagram id="nbt3TyejnmN0GIqfXfZn" name="Page-1">
    <mxGraphModel dx="2249" dy="794" grid="1" gridSize="10" guides="1" tooltips="1" connect="1" arrows="1" fold="1" page="1" pageScale="1" pageWidth="827" pageHeight="1169" math="0" shadow="0">
      <root>
        <mxCell id="0" />
        <mxCell id="1" parent="0" />
        <mxCell id="oNlbJa3u0MXDVnOYEHn1-16" value="" style="swimlane;startSize=0;labelBackgroundColor=default;fontSize=22;fontColor=default;strokeColor=default;fillColor=default;" vertex="1" parent="1">
          <mxGeometry x="550" y="400" width="220" height="350" as="geometry" />
        </mxCell>
        <mxCell id="oNlbJa3u0MXDVnOYEHn1-18" value="外呼平台" style="rounded=0;whiteSpace=wrap;html=1;labelBackgroundColor=default;fontSize=18;fontColor=default;strokeColor=default;fillColor=default;" vertex="1" parent="oNlbJa3u0MXDVnOYEHn1-16">
          <mxGeometry x="40" y="40" width="120" height="60" as="geometry" />
        </mxCell>
        <mxCell id="oNlbJa3u0MXDVnOYEHn1-20" value="短信平台" style="rounded=0;whiteSpace=wrap;html=1;labelBackgroundColor=default;fontSize=18;fontColor=default;strokeColor=default;fillColor=default;" vertex="1" parent="oNlbJa3u0MXDVnOYEHn1-16">
          <mxGeometry x="40" y="115" width="120" height="60" as="geometry" />
        </mxCell>
        <mxCell id="oNlbJa3u0MXDVnOYEHn1-21" value="浙政厅APP" style="rounded=0;whiteSpace=wrap;html=1;labelBackgroundColor=default;fontSize=18;fontColor=default;strokeColor=default;fillColor=default;" vertex="1" parent="oNlbJa3u0MXDVnOYEHn1-16">
          <mxGeometry x="40" y="185" width="120" height="60" as="geometry" />
        </mxCell>
        <mxCell id="oNlbJa3u0MXDVnOYEHn1-22" value="浙里办APP" style="rounded=0;whiteSpace=wrap;html=1;labelBackgroundColor=default;fontSize=18;fontColor=default;strokeColor=default;fillColor=default;" vertex="1" parent="oNlbJa3u0MXDVnOYEHn1-16">
          <mxGeometry x="40" y="260" width="120" height="60" as="geometry" />
        </mxCell>
        <mxCell id="oNlbJa3u0MXDVnOYEHn1-35" value="第三方平台" style="rounded=0;whiteSpace=wrap;html=1;labelBackgroundColor=default;fontSize=18;fontColor=#0000FF;strokeColor=none;fillColor=none;dashed=1;strokeWidth=0;" vertex="1" parent="oNlbJa3u0MXDVnOYEHn1-16">
          <mxGeometry x="190" width="20" height="130" as="geometry" />
        </mxCell>
        <mxCell id="oNlbJa3u0MXDVnOYEHn1-23" value="" style="swimlane;startSize=0;labelBackgroundColor=default;fontSize=18;fontColor=default;strokeColor=default;fillColor=default;" vertex="1" parent="1">
          <mxGeometry x="-170" y="400" width="630" height="580" as="geometry" />
        </mxCell>
        <mxCell id="oNlbJa3u0MXDVnOYEHn1-52" value="" style="swimlane;startSize=0;labelBackgroundColor=default;fontSize=18;fontColor=default;strokeColor=default;fillColor=default;" vertex="1" parent="oNlbJa3u0MXDVnOYEHn1-23">
          <mxGeometry x="30" y="330" width="570" height="230" as="geometry" />
        </mxCell>
        <mxCell id="oNlbJa3u0MXDVnOYEHn1-53" value="&lt;font color=&quot;#000000&quot;&gt;第三方数据&lt;/font&gt;" style="fontColor=#0066CC;verticalAlign=top;verticalLabelPosition=bottom;labelPosition=center;align=center;html=1;outlineConnect=0;fillColor=#CCCCCC;strokeColor=#6881B3;gradientColor=none;gradientDirection=north;strokeWidth=2;shape=mxgraph.networks.storage;dashed=1;labelBackgroundColor=default;fontSize=18;" vertex="1" parent="oNlbJa3u0MXDVnOYEHn1-52">
          <mxGeometry x="400" y="70" width="100" height="100" as="geometry" />
        </mxCell>
        <mxCell id="oNlbJa3u0MXDVnOYEHn1-54" value="&lt;font color=&quot;#000000&quot;&gt;业务数据&lt;/font&gt;" style="fontColor=#0066CC;verticalAlign=top;verticalLabelPosition=bottom;labelPosition=center;align=center;html=1;outlineConnect=0;fillColor=#CCCCCC;strokeColor=#6881B3;gradientColor=none;gradientDirection=north;strokeWidth=2;shape=mxgraph.networks.storage;dashed=1;labelBackgroundColor=default;fontSize=18;" vertex="1" parent="oNlbJa3u0MXDVnOYEHn1-52">
          <mxGeometry x="220" y="70" width="100" height="100" as="geometry" />
        </mxCell>
        <mxCell id="oNlbJa3u0MXDVnOYEHn1-55" value="&lt;font style=&quot;font-size: 18px&quot;&gt;数据存储服务器&lt;/font&gt;" style="text;html=1;align=center;verticalAlign=middle;resizable=0;points=[];autosize=1;strokeColor=none;fillColor=none;fontSize=18;fontColor=#0000FF;" vertex="1" parent="oNlbJa3u0MXDVnOYEHn1-52">
          <mxGeometry x="15" y="15" width="140" height="30" as="geometry" />
        </mxCell>
        <mxCell id="oNlbJa3u0MXDVnOYEHn1-56" value="&lt;font color=&quot;#000000&quot;&gt;系统数据&lt;/font&gt;" style="fontColor=#0066CC;verticalAlign=top;verticalLabelPosition=bottom;labelPosition=center;align=center;html=1;outlineConnect=0;fillColor=#CCCCCC;strokeColor=#6881B3;gradientColor=none;gradientDirection=north;strokeWidth=2;shape=mxgraph.networks.storage;dashed=1;labelBackgroundColor=default;fontSize=18;" vertex="1" parent="oNlbJa3u0MXDVnOYEHn1-52">
          <mxGeometry x="60" y="70" width="100" height="100" as="geometry" />
        </mxCell>
        <mxCell id="oNlbJa3u0MXDVnOYEHn1-57" value="" style="swimlane;startSize=0;labelBackgroundColor=default;fontSize=18;fontColor=default;strokeColor=default;fillColor=default;" vertex="1" parent="oNlbJa3u0MXDVnOYEHn1-23">
          <mxGeometry x="30" y="40" width="570" height="230" as="geometry" />
        </mxCell>
        <mxCell id="oNlbJa3u0MXDVnOYEHn1-60" value="&lt;font style=&quot;font-size: 18px&quot;&gt;应用服务器&lt;/font&gt;" style="text;html=1;align=center;verticalAlign=middle;resizable=0;points=[];autosize=1;strokeColor=none;fillColor=none;fontSize=18;fontColor=#0000FF;" vertex="1" parent="oNlbJa3u0MXDVnOYEHn1-57">
          <mxGeometry x="30" y="15" width="110" height="30" as="geometry" />
        </mxCell>
        <mxCell id="oNlbJa3u0MXDVnOYEHn1-62" value="业务服务" style="fontColor=#000000;verticalAlign=top;verticalLabelPosition=bottom;labelPosition=center;align=center;html=1;outlineConnect=0;fillColor=#CCCCCC;strokeColor=#6881B3;gradientColor=none;gradientDirection=north;strokeWidth=2;shape=mxgraph.networks.server;dashed=1;labelBackgroundColor=default;fontSize=18;" vertex="1" parent="oNlbJa3u0MXDVnOYEHn1-57">
          <mxGeometry x="40" y="70" width="90" height="100" as="geometry" />
        </mxCell>
        <mxCell id="oNlbJa3u0MXDVnOYEHn1-63" value="预警服务" style="fontColor=#000000;verticalAlign=top;verticalLabelPosition=bottom;labelPosition=center;align=center;html=1;outlineConnect=0;fillColor=#CCCCCC;strokeColor=#6881B3;gradientColor=none;gradientDirection=north;strokeWidth=2;shape=mxgraph.networks.server;dashed=1;labelBackgroundColor=default;fontSize=18;" vertex="1" parent="oNlbJa3u0MXDVnOYEHn1-57">
          <mxGeometry x="190" y="70" width="90" height="100" as="geometry" />
        </mxCell>
        <mxCell id="oNlbJa3u0MXDVnOYEHn1-64" value="消息服务" style="fontColor=#000000;verticalAlign=top;verticalLabelPosition=bottom;labelPosition=center;align=center;html=1;outlineConnect=0;fillColor=#CCCCCC;strokeColor=#6881B3;gradientColor=none;gradientDirection=north;strokeWidth=2;shape=mxgraph.networks.server;dashed=1;labelBackgroundColor=default;fontSize=18;" vertex="1" parent="oNlbJa3u0MXDVnOYEHn1-57">
          <mxGeometry x="320" y="70" width="90" height="100" as="geometry" />
        </mxCell>
        <mxCell id="oNlbJa3u0MXDVnOYEHn1-65" value="系统服务" style="fontColor=#000000;verticalAlign=top;verticalLabelPosition=bottom;labelPosition=center;align=center;html=1;outlineConnect=0;fillColor=#CCCCCC;strokeColor=#6881B3;gradientColor=none;gradientDirection=north;strokeWidth=2;shape=mxgraph.networks.server;dashed=1;labelBackgroundColor=default;fontSize=18;" vertex="1" parent="oNlbJa3u0MXDVnOYEHn1-57">
          <mxGeometry x="450" y="70" width="90" height="100" as="geometry" />
        </mxCell>
        <mxCell id="oNlbJa3u0MXDVnOYEHn1-72" value="" style="endArrow=classic;startArrow=classic;html=1;rounded=0;labelBackgroundColor=default;fontSize=18;fontColor=default;strokeColor=default;entryX=0.437;entryY=1.009;entryDx=0;entryDy=0;entryPerimeter=0;" edge="1" parent="oNlbJa3u0MXDVnOYEHn1-23" target="oNlbJa3u0MXDVnOYEHn1-57">
          <mxGeometry width="50" height="50" relative="1" as="geometry">
            <mxPoint x="279" y="330" as="sourcePoint" />
            <mxPoint x="280" y="290" as="targetPoint" />
            <Array as="points" />
          </mxGeometry>
        </mxCell>
        <mxCell id="oNlbJa3u0MXDVnOYEHn1-74" value="" style="endArrow=classic;startArrow=classic;html=1;rounded=0;labelBackgroundColor=default;fontSize=18;fontColor=default;strokeColor=default;entryX=0.437;entryY=1.009;entryDx=0;entryDy=0;entryPerimeter=0;" edge="1" parent="oNlbJa3u0MXDVnOYEHn1-23">
          <mxGeometry width="50" height="50" relative="1" as="geometry">
            <mxPoint x="300" y="330" as="sourcePoint" />
            <mxPoint x="300.09000000000015" y="272.06999999999994" as="targetPoint" />
            <Array as="points" />
          </mxGeometry>
        </mxCell>
        <mxCell id="oNlbJa3u0MXDVnOYEHn1-24" value="" style="shape=flexArrow;endArrow=classic;startArrow=classic;html=1;rounded=0;fontSize=18;fontColor=default;strokeColor=default;labelBackgroundColor=default;exitX=1.003;exitY=0.183;exitDx=0;exitDy=0;exitPerimeter=0;" edge="1" parent="1" source="oNlbJa3u0MXDVnOYEHn1-23">
          <mxGeometry width="100" height="100" relative="1" as="geometry">
            <mxPoint x="440" y="500" as="sourcePoint" />
            <mxPoint x="550" y="504" as="targetPoint" />
          </mxGeometry>
        </mxCell>
        <mxCell id="oNlbJa3u0MXDVnOYEHn1-25" value="REST/SDK" style="text;html=1;align=center;verticalAlign=middle;resizable=0;points=[];autosize=1;strokeColor=none;fillColor=none;fontSize=15;fontColor=#CC6600;" vertex="1" parent="1">
          <mxGeometry x="460" y="470" width="90" height="20" as="geometry" />
        </mxCell>
        <mxCell id="oNlbJa3u0MXDVnOYEHn1-36" value="" style="swimlane;startSize=0;labelBackgroundColor=default;fontSize=22;fontColor=default;strokeColor=default;fillColor=default;" vertex="1" parent="1">
          <mxGeometry x="550" y="780" width="220" height="200" as="geometry" />
        </mxCell>
        <mxCell id="oNlbJa3u0MXDVnOYEHn1-37" value="物联网平台" style="rounded=0;whiteSpace=wrap;html=1;labelBackgroundColor=default;fontSize=18;fontColor=default;strokeColor=default;fillColor=default;" vertex="1" parent="oNlbJa3u0MXDVnOYEHn1-36">
          <mxGeometry x="40" y="40" width="120" height="60" as="geometry" />
        </mxCell>
        <mxCell id="oNlbJa3u0MXDVnOYEHn1-41" value="第三方平台" style="rounded=0;whiteSpace=wrap;html=1;labelBackgroundColor=default;fontSize=18;fontColor=#0000FF;strokeColor=none;fillColor=none;dashed=1;strokeWidth=0;" vertex="1" parent="oNlbJa3u0MXDVnOYEHn1-36">
          <mxGeometry x="190" y="5" width="20" height="130" as="geometry" />
        </mxCell>
        <mxCell id="oNlbJa3u0MXDVnOYEHn1-42" value="气象平台" style="rounded=0;whiteSpace=wrap;html=1;labelBackgroundColor=default;fontSize=18;fontColor=default;strokeColor=default;fillColor=default;" vertex="1" parent="oNlbJa3u0MXDVnOYEHn1-36">
          <mxGeometry x="40" y="120" width="120" height="60" as="geometry" />
        </mxCell>
        <mxCell id="oNlbJa3u0MXDVnOYEHn1-46" value="" style="fontColor=#000000;verticalAlign=top;verticalLabelPosition=bottom;labelPosition=center;align=center;html=1;outlineConnect=0;fillColor=#CCCCCC;strokeColor=#6881B3;gradientColor=none;gradientDirection=north;strokeWidth=2;shape=mxgraph.networks.load_balancer;dashed=1;labelBackgroundColor=default;fontSize=18;" vertex="1" parent="1">
          <mxGeometry x="30" y="290" width="100" height="30" as="geometry" />
        </mxCell>
        <mxCell id="oNlbJa3u0MXDVnOYEHn1-80" value="" style="edgeStyle=orthogonalEdgeStyle;rounded=0;orthogonalLoop=1;jettySize=auto;html=1;labelBackgroundColor=default;fontSize=18;fontColor=default;strokeColor=default;entryX=0.5;entryY=0;entryDx=0;entryDy=0;entryPerimeter=0;" edge="1" parent="1" source="oNlbJa3u0MXDVnOYEHn1-66" target="oNlbJa3u0MXDVnOYEHn1-46">
          <mxGeometry relative="1" as="geometry" />
        </mxCell>
        <mxCell id="oNlbJa3u0MXDVnOYEHn1-66" value="PC端" style="fontColor=#000000;verticalAlign=top;verticalLabelPosition=bottom;labelPosition=center;align=center;html=1;outlineConnect=0;fillColor=#CCCCCC;strokeColor=#6881B3;gradientColor=none;gradientDirection=north;strokeWidth=2;shape=mxgraph.networks.pc;dashed=1;labelBackgroundColor=default;fontSize=18;" vertex="1" parent="1">
          <mxGeometry x="-100" y="150" width="100" height="70" as="geometry" />
        </mxCell>
        <mxCell id="oNlbJa3u0MXDVnOYEHn1-82" value="" style="edgeStyle=orthogonalEdgeStyle;rounded=0;orthogonalLoop=1;jettySize=auto;html=1;labelBackgroundColor=default;fontSize=18;fontColor=default;strokeColor=default;" edge="1" parent="1" source="oNlbJa3u0MXDVnOYEHn1-67">
          <mxGeometry relative="1" as="geometry">
            <mxPoint x="80" y="290" as="targetPoint" />
          </mxGeometry>
        </mxCell>
        <mxCell id="oNlbJa3u0MXDVnOYEHn1-67" value="移动端" style="fontColor=#000000;verticalAlign=top;verticalLabelPosition=bottom;labelPosition=center;align=center;html=1;outlineConnect=0;fillColor=#CCCCCC;strokeColor=#6881B3;gradientColor=none;gradientDirection=north;strokeWidth=2;shape=mxgraph.networks.mobile;dashed=1;labelBackgroundColor=default;fontSize=18;" vertex="1" parent="1">
          <mxGeometry x="150" y="135" width="50" height="100" as="geometry" />
        </mxCell>
        <mxCell id="oNlbJa3u0MXDVnOYEHn1-68" value="" style="shape=flexArrow;endArrow=classic;html=1;rounded=0;labelBackgroundColor=default;fontSize=18;fontColor=default;strokeColor=default;exitX=-0.018;exitY=0.55;exitDx=0;exitDy=0;exitPerimeter=0;entryX=0.998;entryY=0.845;entryDx=0;entryDy=0;entryPerimeter=0;" edge="1" parent="1" source="oNlbJa3u0MXDVnOYEHn1-36" target="oNlbJa3u0MXDVnOYEHn1-23">
          <mxGeometry width="50" height="50" relative="1" as="geometry">
            <mxPoint x="490" y="870" as="sourcePoint" />
            <mxPoint x="470" y="890" as="targetPoint" />
          </mxGeometry>
        </mxCell>
        <mxCell id="oNlbJa3u0MXDVnOYEHn1-69" value="DB WRITE&lt;br&gt;/PUSH" style="text;html=1;align=center;verticalAlign=middle;resizable=0;points=[];autosize=1;strokeColor=none;fillColor=none;fontSize=15;fontColor=#CC6600;" vertex="1" parent="1">
          <mxGeometry x="460" y="840" width="90" height="40" as="geometry" />
        </mxCell>
        <mxCell id="oNlbJa3u0MXDVnOYEHn1-75" value="" style="endArrow=classic;startArrow=classic;html=1;rounded=0;labelBackgroundColor=default;fontSize=18;fontColor=default;strokeColor=default;entryX=0.437;entryY=1.009;entryDx=0;entryDy=0;entryPerimeter=0;" edge="1" parent="1">
          <mxGeometry width="50" height="50" relative="1" as="geometry">
            <mxPoint x="70" y="387.93" as="sourcePoint" />
            <mxPoint x="70.09000000000015" y="329.99999999999994" as="targetPoint" />
            <Array as="points" />
          </mxGeometry>
        </mxCell>
        <mxCell id="oNlbJa3u0MXDVnOYEHn1-76" value="" style="endArrow=classic;startArrow=classic;html=1;rounded=0;labelBackgroundColor=default;fontSize=18;fontColor=default;strokeColor=default;entryX=0.437;entryY=1.009;entryDx=0;entryDy=0;entryPerimeter=0;" edge="1" parent="1">
          <mxGeometry width="50" height="50" relative="1" as="geometry">
            <mxPoint x="91" y="387.93" as="sourcePoint" />
            <mxPoint x="91.09000000000015" y="329.99999999999994" as="targetPoint" />
            <Array as="points" />
          </mxGeometry>
        </mxCell>
        <mxCell id="oNlbJa3u0MXDVnOYEHn1-83" value="负载均衡" style="text;html=1;align=center;verticalAlign=middle;resizable=0;points=[];autosize=1;strokeColor=none;fillColor=none;fontSize=18;fontColor=default;" vertex="1" parent="1">
          <mxGeometry x="140" y="290" width="90" height="30" as="geometry" />
        </mxCell>
      </root>
    </mxGraphModel>
  </diagram>
</mxfile>
